<?xml version="1.0" standalone="no"?>
<!DOCTYPE svg PUBLIC "-//W3C//DTD SVG 20010904//EN"
 "http://www.w3.org/TR/2001/REC-SVG-20010904/DTD/svg10.dtd">
<svg version="1.0" xmlns="http://www.w3.org/2000/svg"
 width="700.000000pt" height="700.000000pt" viewBox="0 0 700.000000 700.000000"
 preserveAspectRatio="xMidYMid meet">
<metadata>
Created by potrace 1.11, written by Peter Selinger 2001-2013
</metadata>
<g transform="translate(0.000000,700.000000) scale(0.100000,-0.100000)"
fill="#000000" stroke="none">
<path d="M2230 5622 c-312 -40 -497 -224 -535 -532 -6 -49 -6 -249 -1 -290 2
-14 7 -48 10 -75 35 -268 143 -571 270 -760 l48 -70 -11 -53 c-6 -29 -18 -68
-27 -87 -19 -40 -87 -86 -171 -114 -32 -11 -92 -32 -133 -46 -41 -15 -82 -28
-90 -30 -8 -2 -66 -22 -128 -44 -342 -123 -517 -227 -608 -361 -75 -110 -112
-199 -138 -340 -15 -74 -19 -116 -30 -277 l-2 -33 355 0 356 0 33 34 c30 31
145 113 202 145 242 132 382 190 835 342 255 86 309 109 319 134 3 10 -9 39
-30 72 -172 270 -329 720 -369 1063 -3 25 -8 65 -12 90 -4 25 -7 133 -7 240 0
165 3 213 23 310 34 166 80 281 159 403 43 66 165 197 183 197 5 0 9 4 9 9 0
13 -120 54 -200 68 -32 5 -277 10 -310 5z"/>
<path d="M4475 5620 c-11 -4 -23 -6 -27 -3 -14 7 -208 -53 -208 -65 0 -3 26
-31 58 -62 117 -114 179 -214 238 -382 54 -153 72 -293 69 -529 -1 -102 -4
-190 -7 -195 -3 -5 -8 -36 -12 -69 -3 -33 -9 -71 -12 -85 -3 -14 -7 -40 -9
-58 -7 -55 -63 -276 -96 -379 -56 -171 -141 -362 -227 -510 -37 -63 -40 -74
-32 -105 9 -30 18 -38 77 -63 38 -15 160 -59 273 -97 113 -38 266 -91 340
-119 249 -93 595 -277 675 -358 l30 -30 356 -1 357 0 -3 65 c-11 215 -51 387
-121 511 -110 198 -294 307 -821 488 -215 74 -287 104 -320 133 -31 28 -60 97
-68 165 -7 52 -5 60 23 100 101 147 220 459 247 648 4 24 8 47 10 50 17 27 26
352 13 445 -39 272 -197 443 -463 497 -61 12 -312 18 -340 8z"/>
<path d="M3385 5539 c-264 -20 -432 -83 -571 -217 -113 -108 -199 -308 -221
-511 -17 -157 1 -497 32 -601 2 -8 7 -31 10 -50 15 -94 67 -275 125 -435 37
-102 140 -306 203 -400 33 -49 60 -94 60 -100 -2 -73 -40 -184 -80 -232 -31
-38 -149 -88 -428 -183 -325 -111 -498 -177 -627 -242 -212 -106 -324 -190
-405 -303 -50 -69 -113 -179 -113 -197 0 -5 -9 -28 -19 -51 -22 -49 -69 -226
-77 -291 -2 -24 -7 -55 -10 -67 -2 -13 -7 -83 -11 -155 l-6 -132 2252 0 2252
0 -2 102 c-3 195 -38 383 -101 546 -23 58 -49 117 -59 132 -11 14 -19 29 -19
32 0 8 -36 59 -70 100 -84 100 -194 179 -377 270 -175 87 -265 122 -648 253
-233 79 -348 127 -401 168 -35 27 -79 109 -88 165 -20 132 -21 124 28 199 53
82 121 214 169 326 80 190 164 503 182 685 3 30 8 73 11 95 7 52 7 310 0 355
-3 19 -8 53 -11 75 -9 66 -35 156 -65 227 -110 259 -341 406 -680 434 -116 9
-144 9 -235 3z"/>
</g>
</svg>
